<?xml version="1.0" standalone="no"?>
<!DOCTYPE svg PUBLIC "-//W3C//DTD SVG 20010904//EN"
 "http://www.w3.org/TR/2001/REC-SVG-20010904/DTD/svg10.dtd">
<svg version="1.0" xmlns="http://www.w3.org/2000/svg"
 width="473.000000pt" height="473.000000pt" viewBox="0 0 473.000000 473.000000"
 preserveAspectRatio="xMidYMid meet">
<metadata>
Created by potrace 1.11, written by Peter Selinger 2001-2013
</metadata>
<g transform="translate(0.000000,473.000000) scale(0.100000,-0.100000)"
fill="#000000" stroke="none">
<path d="M4255 4360 c-203 -203 -367 -371 -365 -373 3 -2 25 -9 50 -15 l45
-11 335 337 c364 366 412 417 403 426 -4 3 -27 6 -52 6 l-46 0 -370 -370z"/>
<path d="M2802 3978 c-23 -12 -45 -43 -238 -343 -120 -187 -170 -243 -289
-326 -110 -77 -122 -80 -283 -72 -75 4 -180 7 -232 8 -110 0 -131 -9 -248 -99
-40 -31 -87 -64 -105 -74 -128 -70 -190 -131 -273 -267 -33 -55 -84 -136 -113
-181 -28 -44 -54 -96 -57 -115 -8 -45 16 -102 51 -125 32 -21 97 -20 133 2 29
17 38 29 184 245 l98 145 105 67 c57 37 107 67 111 67 3 0 3 -17 0 -37 -3 -21
-8 -56 -11 -78 -13 -94 -18 -134 -35 -240 -6 -38 -14 -88 -16 -110 -6 -41 -57
-167 -162 -400 l-59 -129 -224 -91 c-123 -50 -234 -97 -245 -105 -81 -52 -69
-185 19 -219 35 -13 43 -12 119 13 209 69 491 190 521 224 10 11 82 117 161
236 l143 216 37 -147 c21 -82 40 -161 42 -177 3 -16 9 -38 13 -49 8 -20 -26
-90 -109 -227 -18 -30 -42 -71 -53 -90 -10 -19 -47 -82 -80 -140 -107 -186
-135 -260 -114 -306 12 -27 76 -64 111 -64 63 0 73 11 261 305 61 94 221 370
233 400 7 20 13 146 16 375 l5 345 41 200 c23 110 44 214 47 230 13 88 25 108
106 189 91 91 196 183 232 206 34 20 315 585 315 632 0 70 -97 135 -158 106z"/>
<path d="M3285 3975 c-128 -24 -205 -65 -205 -109 0 -43 40 -72 140 -102 90
-26 340 -27 452 -1 83 20 158 65 158 96 0 41 -63 91 -134 106 -11 2 -32 7 -46
10 -45 12 -303 12 -365 0z"/>
<path d="M1913 3859 c-192 -34 -269 -263 -139 -416 79 -94 254 -102 352 -16
40 35 74 101 80 156 20 167 -127 305 -293 276z"/>
<path d="M2974 3077 c-307 -310 -580 -587 -606 -616 -48 -52 -52 -64 -39 -110
6 -23 6 -23 56 17 28 22 317 308 644 635 l594 595 -41 21 c-23 12 -43 21 -45
21 -2 0 -256 -253 -563 -563z"/>
<path d="M1744 1835 c-34 -30 -440 -432 -903 -893 l-841 -839 0 -51 c0 -40 4
-52 15 -52 8 0 211 196 450 435 l435 435 58 -29 c109 -55 211 -75 382 -75 212
0 403 36 680 126 495 163 849 431 865 656 2 31 4 63 4 70 1 9 192 12 921 12
l920 0 0 35 0 35 -1233 0 -1233 0 -2 -35 -3 -35 243 -1 c134 -1 246 -1 250 0
4 0 19 -4 33 -9 22 -8 25 -15 25 -57 0 -168 -236 -365 -630 -526 -152 -61
-393 -134 -511 -153 -151 -24 -241 -31 -369 -29 -154 3 -216 13 -293 52 l-48
24 349 349 350 350 66 0 c62 0 66 1 66 23 0 28 -11 44 -33 48 -14 3 -7 15 33
59 54 60 59 77 33 109 -18 21 -18 21 -79 -34z"/>
</g>
</svg>
