<?xml version="1.0" encoding="UTF-8" standalone="no"?>
<!-- Created with Inkscape (http://www.inkscape.org/) -->

<svg
   xmlns:dc="http://purl.org/dc/elements/1.1/"
   xmlns:cc="http://creativecommons.org/ns#"
   xmlns:rdf="http://www.w3.org/1999/02/22-rdf-syntax-ns#"
   xmlns:svg="http://www.w3.org/2000/svg"
   xmlns="http://www.w3.org/2000/svg"
   xmlns:sodipodi="http://sodipodi.sourceforge.net/DTD/sodipodi-0.dtd"
   xmlns:inkscape="http://www.inkscape.org/namespaces/inkscape"
   id="svg2"
   version="1.1"
   inkscape:version="0.48.4 r9939"
   width="500"
   height="500"
   sodipodi:docname="ultisquash-icon.svg">
  <metadata
     id="metadata8">
    <rdf:RDF>
      <cc:Work
         rdf:about="">
        <dc:format>image/svg+xml</dc:format>
        <dc:type
           rdf:resource="http://purl.org/dc/dcmitype/StillImage" />
        <dc:title />
      </cc:Work>
    </rdf:RDF>
  </metadata>
  <defs
     id="defs6" />
  <sodipodi:namedview
     pagecolor="#ffffff"
     bordercolor="#666666"
     borderopacity="1"
     objecttolerance="10"
     gridtolerance="10"
     guidetolerance="10"
     inkscape:pageopacity="0"
     inkscape:pageshadow="2"
     inkscape:window-width="1920"
     inkscape:window-height="1004"
     id="namedview4"
     showgrid="false"
     inkscape:zoom="1.3350176"
     inkscape:cx="271.46709"
     inkscape:cy="297.1873"
     inkscape:window-x="0"
     inkscape:window-y="24"
     inkscape:window-maximized="1"
     inkscape:current-layer="layer1" />
  <g
     inkscape:groupmode="layer"
     id="layer1"
     inkscape:label="Layer">
    <path
       style="fill:#000000"
       d="m 104.46875,386.92629 c 95.48307,-95.48704 95.49387,-95.49738 96.49807,-92.54409 0.5523,1.62449 1.5719,3.51863 2.2657,4.20919 1.0141,1.00932 0.039,2.48892 -4.9711,7.54408 -6.1863,6.24181 -6.2105,6.2885 -3.2615,6.2885 2.7289,0 2.9711,0.28534 2.9711,3.5 l 0,3.5 -6.5053,0 -6.5054,0 -34.8785,34.88922 -34.87856,34.88922 2.5651,1.68072 c 14.94156,9.79008 55.39426,8.48682 93.58876,-3.01514 52.7627,-15.88905 89.05648,-40.78122 89.10418,-61.11223 0.018,-7.82769 1.9187,-7.33179 -28.09728,-7.33179 l -26.893,0 0,-3.5 0,-3.5 123.49998,0 123.5,0 0,3.5 0,3.5 -92.25,0.005 -92.25,0.005 -0.012,7.24835 c -0.076,45.98075 -142.26258,99.23988 -192.40885,72.07076 l -6.4208,-3.47877 -43.583407,43.5747 -43.58341,43.57497 -6.49382,0 -6.4938296,0 z m 79.32327,-5.1156 c -10.5075,-5.18187 -9.0232,-10.62488 12.8421,-47.0915 10.0853,-16.82013 18.2194,-31.08001 18.0758,-31.68863 -0.1436,-0.60863 -2.4168,-9.81693 -5.0514,-20.4629 l -4.7903,-19.35631 -8.3817,12.85631 c -18.6762,28.64672 -20.9209,31.94421 -23.1846,34.05838 -3.4815,3.25167 -54.25517,23.29793 -59.0095,23.29793 -13.20913,0 -16.014787,-19.16923 -3.58843,-24.51734 9.52922,-4.10121 12.9405,-5.48635 28.44173,-11.54863 l 16.1747,-6.32565 5.7405,-12.55419 c 12.8094,-28.0131 14.9119,-32.96867 15.9333,-37.55419 1.295,-5.81366 7.5769,-49.73324 7.1715,-50.1387 -0.165,-0.16494 -5.308,3.04662 -11.429,7.1368 l -11.1291,7.43669 -12.5704,18.92642 c -6.9137,10.40953 -13.3569,19.24607 -14.3183,19.63675 -9.9157,4.02968 -16.70507,1.38349 -19.38299,-7.55463 -1.57166,-5.24571 -0.75957,-6.8891 15.29079,-30.94333 0,0 7.1066,-13.25359 12.3443,-18.5 6.0315,-6.04144 21.28,-14.25 21.28,-14.25 0,0 13.112,-11.76775 21.28,-14.25 7.9675,-2.42128 16.6544,0 24.9816,0 8.3272,0 16.9798,2.30498 24.9816,0 5.1969,-1.49699 13.7384,-8.63105 13.7384,-8.63105 18.4123,-11.56741 20.73,-24.9692 30.8607,-37.64343 7.5772,-9.47958 14.92618,-28.718034 22.37768,-28.718034 6.6805,0 13,6.28624 13,12.93141 0,1.10172 -6.5034,15.005344 -14.4519,30.896934 l -14.45198,28.89381 c 0,0 -8.451,6.37665 -12.298,9.99747 -8.3311,7.84114 -22.4248,18.81073 -23.2226,25.27289 -0.3734,3.025 -1.0992,7.075 -1.6128,9 -0.5136,1.925 -2.341,10.7 -4.0607,19.5 -1.7198,8.8 -3.5067,17.8 -3.9709,20 -0.4642,2.2 -0.8636,18.98044 -0.8875,37.28984 -0.041,31.68735 -0.1436,33.48593 -2.1218,37.36342 -6.0311,11.82193 -37.4531,62.80583 -40.4281,65.59675 -3.969,3.72349 -8.808,4.28232 -14.1727,1.63671 z m 68.679,-133.66421 c 0,-1.25263 -0.6442,-3.19726 -1.4316,-4.32141 -1.3569,-1.93721 1.7884,-5.26359 60.25078,-63.72033 l 61.6825,-61.67641 4.3445,2.14952 4.3446,2.14952 -63.8424,63.8483 c -65.79498,65.80097 -65.34838,65.38016 -65.34838,61.57081 z m -43.5,-102.6034 c -28.6252,-7.48566 -23.5326,-49.497754 6,-49.497754 26.4632,0 34.8882,35.301744 11.324,47.448844 -4.2121,2.17131 -12.9184,3.201 -17.324,2.04891 z M 344.471,106.81522 c -31.8346,-6.895594 -17.3959,-23.321464 20.5,-23.321464 25.1313,0 40.0046,5.90629 36.925,14.66317 -2.9232,8.311954 -35.9998,13.299114 -57.425,8.658294 z m 68.252,-21.834994 -5.2481,-1.07016 37.253,-37.24305 37.253,-37.2430359 5.2451,0 c 3.5405,0 5.245,0.40784 5.245,1.2549999 0,0.69025 -16.7625,17.93119 -37.25,38.313196 l -37.25,37.0582 z"
       id="path3093-4"
       inkscape:connector-curvature="0"
       sodipodi:nodetypes="sssssscccccsssscccccccccsscccccssscscssssscsssscssssscssssassscassssssssssscccssssssssssccccssscc" />
  </g>
</svg>
